<svg xmlns="http://www.w3.org/2000/svg" viewBox="0 0 215.51 29.33"><defs><style>.cls-1{fill:#231f20;}.cls-2{fill:#fff;}.cls-3{fill:#fff200;}.cls-4{fill:#f7ec13;}</style></defs><g id="Layer_2" data-name="Layer 2"><g id="Layer_1-2" data-name="Layer 1"><rect class="cls-1" width="215.51" height="29.33"/><path class="cls-2" d="M44.19,15.83l2-4.51,2,4.51Zm3.72-7.6H45.8A2.06,2.06,0,0,0,44,9.35L38.69,21.11h2.14A2,2,0,0,0,42.68,20l.84-1.85h5.33L49.69,20a2.06,2.06,0,0,0,1.85,1.12H53.7Z"/><path class="cls-2" d="M79.59,15.83l2-4.51,2,4.51Zm3.71-7.6H81.19a2.05,2.05,0,0,0-1.82,1.12L74.08,21.11h2.15A2,2,0,0,0,78.08,20l.83-1.85h5.34L85.09,20a2.06,2.06,0,0,0,1.84,1.12H89.1Z"/><path class="cls-2" d="M10,8.23A1.32,1.32,0,0,0,8.67,9.47V21.11H10.4a1.32,1.32,0,0,0,1.36-1.24V8.23Z"/><path class="cls-2" d="M25.73,8.23H24v9.59L20,9.37a2,2,0,0,0-1.82-1.14H15.91a1.32,1.32,0,0,0-1.34,1.24V21.11H16.3a1.33,1.33,0,0,0,1.36-1.24V11.55l4,8.47a2,2,0,0,0,1.8,1.09h3.65V9.47a1.34,1.34,0,0,0-1.35-1.24"/><path class="cls-2" d="M71.68,8.23H69.13A2.06,2.06,0,0,0,67.3,9.37L64,17.29,60.54,9.37A2,2,0,0,0,58.7,8.23H56.35A1.33,1.33,0,0,0,55,9.47V21.11h1.74a1.33,1.33,0,0,0,1.36-1.24V11.61l4.35,9.5h1.7A2,2,0,0,0,66,20l4-8.47v8.32a1.33,1.33,0,0,0,1.36,1.24H73V9.47a1.34,1.34,0,0,0-1.35-1.24"/><path class="cls-2" d="M33.78,11.07c.52-.42,1.15-.54,3.09-.54h2.68V8.23h-4.2c-2.13,0-3.46.46-4.37,1.49s-1,1.89-1,4.14v7.25h1.78a1.32,1.32,0,0,0,1.35-1.26v-4H38V13.46h-4.9V13.1c.06-1.32.19-1.6.7-2"/><path class="cls-3" d="M92.75,1.29H1.61V28H92.75Zm0,25.61H2.81V2.36H92.75Z"/><rect class="cls-3" x="92.75" y="1.27" width="121.1" height="26.81"/><path class="cls-1" d="M98.73,8.24s3.12,0,3.12,1.35v11.7s-3.12,0-3.12-1.35Z"/><path class="cls-1" d="M112.81,16.73a12.67,12.67,0,0,1-.25-2.29v-6s3.11,0,3.11,1.35V21.29c-3.33,0-3.92-1.36-3.92-1.36l-4.64-7.15a13.36,13.36,0,0,1,.2,2.05v6.46s-3.11,0-3.11-1.35V8.42c1.77,0,3.18,0,3.91,1.1Z"/><path class="cls-1" d="M123,8.21c3,0,5,.6,5,2.27a4.07,4.07,0,0,1-.74,2.06,1.06,1.06,0,0,0,0-.24c0-1.56-2.61-1.87-4.31-1.87-1.34,0-2.3.22-2.3,1.29,0,2.55,7.77-.19,7.77,5.57,0,2.67-2.39,4-5.77,4-2.38,0-4.89-.71-4.89-2.34a2.88,2.88,0,0,1,.81-1.79c0,1.58,2.55,1.92,4.08,1.92,1.75,0,2.55-.56,2.55-1.6,0-2.87-7.77-.13-7.77-5.44,0-3,2.48-3.84,5.5-3.84"/><path class="cls-1" d="M141.68,17.17c0,2.77-2.71,4.15-5.78,4.15s-5.81-1.38-5.81-4.15V8.24s3.12,0,3.12,1.35V16.9c0,1.45,1.11,2.22,2.69,2.22s2.66-.77,2.66-2.22V8.24s3.12,0,3.12,1.35Z"/><path class="cls-1" d="M147,10.55v3.16h1.57c1.32,0,1.79-.55,1.79-1.71s-.63-1.45-1.94-1.45Zm3.19,5.06c2.28,1.45,2.92,3.53,4.26,5.36a10.2,10.2,0,0,1-1.54.28A2.83,2.83,0,0,1,150.42,20c-.74-1.14-1.66-3.34-3.45-4.09v5.36s-3.12-.06-3.12-1.35V8.42h4.54c2.94,0,5.05.8,5.05,3.32v.52a3.17,3.17,0,0,1-3.28,3.35"/><path class="cls-1" d="M160,14.08l-.47,1.63h2.78l-.46-1.63c-.27-.95-.92-2.64-.92-2.64s-.65,1.69-.93,2.64m4.78-.46,1.6,4.65a10.42,10.42,0,0,0,1.1,2.66,6.34,6.34,0,0,1-1.43.31c-1.92,0-2.36-1.3-2.83-2.62l-.27-.77h-4.05l-.27.77c-.47,1.32-.91,2.62-2.83,2.62a6.36,6.36,0,0,1-1.41-.31,10.46,10.46,0,0,0,1.09-2.66l1.59-4.65A11.76,11.76,0,0,1,160.92,8a11.76,11.76,0,0,1,3.85,5.67"/><path class="cls-1" d="M177.26,16.73a12.21,12.21,0,0,1-.26-2.29v-6s3.12,0,3.12,1.35V21.29c-3.33,0-3.93-1.36-3.93-1.36l-4.63-7.15a13.36,13.36,0,0,1,.2,2.05v6.46s-3.12,0-3.12-1.35V8.42c1.78,0,3.19,0,3.92,1.1Z"/><path class="cls-1" d="M185.4,13v3.59c0,2,1.11,2.57,2.7,2.57s3.6-.19,4.6-2.07c1.79,2.89-1.18,4.27-4.6,4.27-3.1,0-5.81-1.17-5.81-4.51v-4.1c0-3.33,2.71-4.5,5.81-4.5,3.42,0,6.67,1.2,4.6,4.28-.8-1.78-2.94-2.06-4.6-2.06s-2.7.6-2.7,2.53"/><path class="cls-1" d="M198.58,15.51V19H205c0,.12,0,2.11-1.69,2.11H197.8s-2.34,0-2.34-1.35V8.42H205s0,2.13-1.69,2.13h-4.77v2.83H202a5.9,5.9,0,0,0,2.33-.28c0,1.2-.25,2.41-2,2.41Z"/><path class="cls-1" d="M208.12,4.33a1.53,1.53,0,0,1,.83.26,1.78,1.78,0,0,1,.62.73,2.21,2.21,0,0,1,.22,1,2.11,2.11,0,0,1-.22,1,1.62,1.62,0,0,1-.62.74,1.52,1.52,0,0,1-.83.27,1.55,1.55,0,0,1-.84-.27,1.75,1.75,0,0,1-.62-.74,2.24,2.24,0,0,1-.22-1,2.35,2.35,0,0,1,.22-1,1.73,1.73,0,0,1,.63-.73,1.5,1.5,0,0,1,.83-.26m0,.39a1.2,1.2,0,0,0-.67.21,1.33,1.33,0,0,0-.5.59,1.9,1.9,0,0,0-.18.8,2,2,0,0,0,.17.8,1.53,1.53,0,0,0,.5.59,1.16,1.16,0,0,0,1.36,0,1.43,1.43,0,0,0,.49-.59,1.84,1.84,0,0,0,.18-.8,1.77,1.77,0,0,0-.19-.8,1.25,1.25,0,0,0-.49-.59,1.23,1.23,0,0,0-.67-.21m-.76,2.66V5.27h.93a.61.61,0,0,1,.28.09.43.43,0,0,1,.16.19.68.68,0,0,1,.08.31.6.6,0,0,1-.14.39.48.48,0,0,1-.35.2.31.31,0,0,1,.12.09.38.38,0,0,1,.13.16s.06.1.13.25l.21.42h-.44l-.16-.33a1.3,1.3,0,0,0-.25-.45.39.39,0,0,0-.25-.08h-.09v.86Zm.36-1.19h.14a.9.9,0,0,0,.4,0,.17.17,0,0,0,.12-.09.29.29,0,0,0,0-.16.27.27,0,0,0,0-.16.38.38,0,0,0-.12-.1,1.8,1.8,0,0,0-.4,0h-.14Z"/><rect class="cls-4" x="92.75" y="1.29" width="1.11" height="26.75"/></g></g></svg>